<?xml version="1.0" standalone="no"?>
<!DOCTYPE svg PUBLIC "-//W3C//DTD SVG 20010904//EN"
 "http://www.w3.org/TR/2001/REC-SVG-20010904/DTD/svg10.dtd">
<svg version="1.0" xmlns="http://www.w3.org/2000/svg"
 width="356.000000pt" height="347.000000pt" viewBox="0 0 356.000000 347.000000"
 preserveAspectRatio="xMidYMid meet">
<metadata>
Created by potrace 1.16, written by Peter Selinger 2001-2019
</metadata>
<g transform="translate(0.000000,347.000000) scale(0.100000,-0.100000)"
fill="#000000" stroke="none">
<path d="M2485 2912 c-48 -34 -60 -66 -21 -56 37 9 86 -42 86 -89 0 -33 -2
-35 -62 -57 -35 -12 -84 -33 -109 -46 l-47 -23 -5 -63 c-2 -35 -1 -85 4 -113
4 -27 13 -126 19 -220 5 -93 13 -188 15 -210 l6 -41 68 -17 c76 -20 109 -47
158 -131 23 -40 37 -52 71 -64 24 -8 45 -12 48 -9 6 6 43 174 54 247 10 66 28
304 37 490 l6 135 -27 32 c-18 22 -40 35 -68 40 -41 8 -41 8 -54 71 -15 74
-43 124 -79 140 -38 17 -55 14 -100 -16z"/>
<path d="M1848 2540 c24 -28 14 -48 -28 -55 -46 -8 -137 2 -146 16 -3 6 0 18
7 27 11 14 9 14 -7 -1 -19 -18 -19 -18 3 -36 l22 -18 -38 -15 c-51 -20 -68
-50 -73 -125 -5 -74 11 -71 37 7 9 27 24 51 33 54 22 6 212 6 234 0 10 -3 19
-20 23 -47 8 -45 21 -77 33 -77 9 0 9 142 0 156 -4 6 -23 19 -43 28 -28 14
-35 23 -35 45 0 16 -8 35 -17 42 -15 11 -16 11 -5 -1z"/>
<path d="M1454 2408 c5 -67 43 -137 93 -173 111 -79 168 -108 214 -109 42 -1
57 6 150 70 114 78 147 121 155 205 4 41 3 39 -20 -25 -26 -78 -52 -105 -170
-183 -94 -62 -126 -65 -194 -19 -29 19 -75 47 -103 62 -57 31 -85 71 -111 158
l-18 61 4 -47z"/>
<path d="M2854 1442 c-33 -31 -83 -76 -111 -100 -29 -23 -71 -71 -94 -107
l-42 -66 -30 36 c-41 50 -77 67 -116 54 -32 -11 -40 -26 -47 -86 -2 -21 -10
-65 -17 -98 -12 -56 -14 -58 -25 -37 -9 16 -22 22 -47 22 -33 0 -37 -4 -66
-62 -17 -35 -35 -65 -40 -68 -4 -3 -17 -25 -27 -48 -21 -47 -26 -43 -37 32 -4
25 -12 46 -19 46 -14 -1 -96 -75 -96 -87 0 -5 -14 -22 -30 -38 -39 -37 -126
-163 -146 -210 -17 -42 -6 -127 22 -170 9 -14 13 -29 10 -33 -4 -4 -61 -9
-126 -11 -85 -2 -124 1 -143 10 -25 14 -25 15 -11 54 28 80 14 150 -50 250
-20 30 -53 75 -75 98 -21 23 -40 47 -42 52 -5 13 -94 95 -103 95 -3 0 -6 -21
-6 -47 0 -57 -9 -93 -22 -93 -9 0 -39 63 -64 137 -8 24 -26 55 -39 69 -22 24
-30 26 -70 21 -25 -4 -45 -3 -46 1 0 4 -2 27 -4 51 -2 24 -8 47 -14 50 -5 4
-12 19 -15 34 -7 38 -12 44 -53 58 l-37 12 -53 -59 c-40 -45 -53 -54 -53 -39
-1 48 -61 124 -176 224 l-118 100 -24 -92 c-41 -157 -52 -210 -52 -271 0 -85
28 -139 92 -175 l50 -29 -54 -11 c-224 -47 -266 -57 -268 -65 -4 -16 229 -213
291 -246 l61 -32 -61 -35 c-34 -19 -61 -38 -61 -43 0 -12 346 -180 370 -180
35 0 29 -15 -20 -50 -27 -19 -49 -37 -50 -40 0 -3 35 -18 77 -32 219 -77 334
-94 411 -63 61 26 79 47 111 136 l9 26 74 -14 c95 -18 331 -18 426 0 l74 14 9
-26 c32 -89 50 -110 111 -136 43 -17 135 -20 193 -4 77 20 295 93 295 98 -1 3
-23 22 -50 41 -49 35 -55 50 -20 50 25 0 370 168 370 180 0 5 -28 25 -62 44
l-63 35 35 15 c50 21 113 68 230 170 56 49 98 92 93 96 -4 4 -48 15 -98 25
-49 9 -121 24 -159 32 l-69 16 29 15 c117 59 139 151 84 362 -17 63 -30 131
-30 152 0 20 -4 39 -8 42 -5 3 -35 -21 -68 -52z m-2123 -141 c118 -116 134
-176 73 -266 -23 -35 -24 -37 -7 -68 l17 -32 7 32 c3 18 21 57 39 87 43 70
140 180 151 169 13 -13 48 -153 55 -218 9 -84 -7 -135 -56 -179 -22 -20 -49
-36 -60 -36 -31 0 -24 -17 28 -72 l48 -50 1 48 c0 60 28 133 91 242 l49 83 63
-133 c77 -161 85 -206 47 -271 -15 -24 -38 -52 -52 -61 -14 -9 -25 -21 -25
-26 0 -10 92 -60 110 -60 7 0 8 6 0 19 -25 47 -9 134 66 360 6 19 31 -4 107
-99 101 -126 127 -209 91 -285 -9 -19 -27 -41 -41 -50 -35 -24 -21 -33 83 -54
l89 -17 3 -38 3 -38 -68 6 c-65 7 -171 28 -203 41 -13 4 -18 -7 -28 -54 -23
-110 -96 -154 -222 -132 -76 14 -249 72 -251 84 -1 15 182 155 227 174 24 10
44 20 44 23 0 5 -94 60 -104 60 -3 0 -10 -18 -16 -40 -22 -81 -86 -118 -170
-99 -23 5 -100 39 -173 76 l-132 66 110 53 c61 30 134 59 163 65 l52 10 -19
27 c-10 15 -30 37 -43 50 l-25 22 -24 -37 c-54 -82 -121 -97 -209 -46 -64 36
-234 184 -223 193 11 10 228 51 278 53 22 1 51 -2 64 -7 l24 -8 -24 43 c-21
38 -29 44 -69 51 -86 15 -130 72 -130 169 0 47 42 246 57 272 8 14 47 -16 134
-102z m2193 -10 c53 -213 23 -307 -105 -329 -38 -7 -47 -13 -67 -50 l-24 -43
29 8 c15 4 46 7 68 5 52 -3 258 -43 268 -52 10 -9 -158 -156 -221 -192 -88
-52 -174 -30 -218 54 l-16 30 -25 -23 c-14 -13 -34 -36 -44 -51 l-19 -26 52
-12 c58 -12 258 -103 258 -117 0 -14 -272 -142 -305 -144 -89 -6 -130 21 -154
100 -6 23 -14 41 -17 41 -10 0 -104 -55 -104 -60 0 -3 20 -13 43 -23 44 -18
222 -153 226 -172 1 -5 -49 -27 -111 -49 -228 -78 -344 -44 -364 107 -5 39
-10 47 -23 42 -45 -18 -149 -35 -217 -38 l-78 -2 -7 33 c-8 38 -13 36 96 50
44 6 93 16 109 22 l30 11 -32 29 c-89 81 -64 194 79 359 39 45 73 81 74 79 2
-2 22 -59 45 -127 34 -101 41 -134 38 -180 -2 -31 -8 -64 -12 -74 -7 -16 2
-13 53 12 33 17 61 35 61 40 0 5 -15 20 -34 34 -18 14 -41 41 -50 60 -30 64
-22 108 48 253 36 74 68 134 73 134 5 0 37 -56 72 -123 57 -111 64 -130 64
-182 l0 -58 48 51 c51 53 60 72 33 72 -28 0 -75 34 -97 70 -31 49 -30 156 2
278 14 50 28 92 32 92 11 0 99 -100 136 -157 19 -28 41 -68 48 -89 l12 -37 18
26 c16 25 16 28 -4 53 -57 72 -46 155 33 241 61 68 158 145 167 135 4 -4 19
-54 33 -111z"/>
</g>
</svg>
